<?xml version="1.0" encoding="UTF-8" standalone="no"?>
<!-- Created with Inkscape (http://www.inkscape.org/) -->

<svg
   width="121.24012mm"
   height="21.121298mm"
   viewBox="0 0 121.24012 21.121298"
   version="1.1"
   id="svg1"
   inkscape:version="1.3.2 (091e20e, 2023-11-25, custom)"
   sodipodi:docname="ezreports-logo.svg"
   xmlns:inkscape="http://www.inkscape.org/namespaces/inkscape"
   xmlns:sodipodi="http://sodipodi.sourceforge.net/DTD/sodipodi-0.dtd"
   xmlns="http://www.w3.org/2000/svg"
   xmlns:svg="http://www.w3.org/2000/svg">
  <sodipodi:namedview
     id="namedview1"
     pagecolor="#ffffff"
     bordercolor="#000000"
     borderopacity="0.25"
     inkscape:showpageshadow="2"
     inkscape:pageopacity="0.0"
     inkscape:pagecheckerboard="0"
     inkscape:deskcolor="#d1d1d1"
     inkscape:document-units="mm"
     inkscape:zoom="0.72426347"
     inkscape:cx="365.19859"
     inkscape:cy="276.83296"
     inkscape:window-width="1920"
     inkscape:window-height="1009"
     inkscape:window-x="-8"
     inkscape:window-y="-6"
     inkscape:window-maximized="1"
     inkscape:current-layer="layer1" />
  <defs
     id="defs1" />
  <g
     inkscape:label="Camada 1"
     inkscape:groupmode="layer"
     id="layer1"
     transform="translate(-8.4666663,-75.406249)">
    <g
       id="g79"
       transform="translate(-32.267908,41.641642)">
      <g
         id="g77"
         transform="matrix(0.58718442,0,0,0.58718442,24.405098,-19.626395)">
        <ellipse
           style="opacity:1;fill:#324a5e;fill-opacity:1;stroke-width:1.18583"
           id="ellipse74"
           cx="45.875748"
           cy="108.91238"
           rx="18.065956"
           ry="17.985233" />
        <path
           id="path74"
           style="opacity:1;fill:#f2f2f2;fill-opacity:1;stroke-width:1.3"
           d="m 37.33504,98.15996 v 21.69841 h 17.11369 v -17.59789 l -4.10104,-4.10052 z" />
        <path
           id="path75"
           style="opacity:0.45;fill:#324a5e;stroke-width:1.3"
           d="m 50.34783,98.159843 4.10076,4.100757 h -4.10076 z"
           sodipodi:nodetypes="cccc" />
        <path
           id="path76"
           style="opacity:1;fill:#ec644e;fill-opacity:1;stroke-width:1.07201"
           d="m 40.91933,101.4533 v 5.61878 h 1.09812 v -5.61878 z m 2.21175,0.71055 v 4.90823 h 1.09812 v -4.90823 z m 2.21225,1.42059 v 3.48764 h 1.09762 v -3.48764 z m 2.21176,1.03353 v 2.45411 h 1.0976 v -2.45411 z m 2.21175,1.22679 v 1.22732 h 1.0976 v -1.22732 z" />
        <path
           id="path77"
           style="opacity:1;fill:#b3b3b3;fill-opacity:1;stroke-width:1.3"
           d="m 38.85278,108.91228 v 0.87178 h 14.07821 v -0.87178 z m 0,2.71249 v 0.87178 h 14.07821 v -0.87178 z m 0,2.71198 v 0.8723 h 14.07821 v -0.8723 z m 0,2.7125 v 0.87178 h 9.16998 v -0.87178 z" />
      </g>
      <g
         id="g78"
         transform="translate(3.2947952,-46.878357)">
        <path
           d="m 63.177435,91.23332 q 0,-1.366704 0.396146,-2.376876 0.396146,-1.02998 1.049787,-1.703428 0.653641,-0.673448 1.505355,-1.010172 0.851714,-0.336724 1.743043,-0.336724 2.079766,0 3.188975,1.307282 1.109209,1.287474 1.109209,3.941652 0,0.118844 0,0.316917 0,0.178266 -0.01981,0.336724 h -7.051399 q 0.118843,1.604392 0.930943,2.436298 0.812099,0.831907 2.535334,0.831907 0.970558,0 1.624199,-0.158458 0.673448,-0.178266 1.010172,-0.336725 l 0.257495,1.54497 q -0.336724,0.178266 -1.188438,0.376339 -0.831907,0.198073 -1.901501,0.198073 -1.346896,0 -2.337261,-0.396146 -0.970558,-0.415954 -1.604392,-1.129017 -0.633833,-0.713062 -0.95075,-1.68362 -0.29711,-0.990365 -0.29711,-2.158996 z m 7.071207,-1.010172 q 0.01981,-1.24786 -0.633834,-2.040152 -0.633834,-0.8121 -1.76285,-0.8121 -0.633833,0 -1.129016,0.257495 -0.475375,0.237688 -0.812099,0.633834 -0.336724,0.396146 -0.534797,0.911136 -0.178266,0.51499 -0.237688,1.049787 z m 11.409005,-2.773022 q -0.415954,0.455568 -1.109209,1.287474 -0.673448,0.831907 -1.46574,1.842079 -0.772485,1.010173 -1.564777,2.119381 -0.772485,1.109209 -1.366704,2.119382 h 5.664888 v 1.544969 h -7.863498 v -1.228053 q 0.475375,-0.871521 1.16863,-1.921308 0.693256,-1.049787 1.445933,-2.079766 0.772485,-1.049787 1.485548,-1.960923 0.73287,-0.930943 1.267667,-1.564777 h -5.090476 v -1.544969 h 7.427738 z"
           id="text77"
           style="font-size:19.8073px;font-family:Ubuntu;-inkscape-font-specification:'Ubuntu, Normal';fill:#ec644e;stroke-width:1.79873"
           aria-label="ez" />
        <path
           d="m 90.067411,82.428978 q 3.089939,0 4.733944,1.109209 1.644006,1.089402 1.644006,3.406856 0,1.445933 -0.673448,2.357069 -0.653641,0.891328 -1.901501,1.406318 0.415954,0.51499 0.871522,1.188438 0.455567,0.653641 0.891328,1.386511 0.455568,0.713063 0.871521,1.505355 0.415954,0.772485 0.772485,1.525162 H 93.81099 Q 93.434652,95.640448 93.038506,94.947192 92.662167,94.253937 92.246214,93.600296 91.850068,92.946655 91.453922,92.372243 91.057776,91.778024 90.66163,91.302649 h -1.525162 v 5.011247 H 86.046529 V 82.78551 q 1.010172,-0.198073 2.079766,-0.277302 1.089402,-0.07923 1.941116,-0.07923 z m 0.178265,2.634371 q -0.336724,0 -0.614026,0.01981 -0.257495,0.01981 -0.495182,0.03961 v 3.723773 h 0.871521 q 1.743042,0 2.49572,-0.435761 0.752677,-0.43576 0.752677,-1.485547 0,-1.010173 -0.772485,-1.426126 -0.752677,-0.435761 -2.238225,-0.435761 z m 7.823888,6.120456 q 0,-1.386511 0.415953,-2.41649 0.435761,-1.049787 1.129016,-1.743043 0.693257,-0.693255 1.584587,-1.049787 0.91113,-0.356531 1.86188,-0.356531 2.21842,0 3.5059,1.366704 1.28747,1.346896 1.28747,3.981267 0,0.257495 -0.0198,0.574412 -0.0198,0.297109 -0.0396,0.534797 h -6.69487 q 0.099,0.911136 0.85171,1.445933 0.75268,0.534797 2.02035,0.534797 0.8121,0 1.58458,-0.138651 0.7923,-0.158459 1.28748,-0.376339 l 0.39614,2.396683 q -0.23768,0.118844 -0.63383,0.237688 -0.39615,0.118844 -0.89133,0.198073 -0.47537,0.09904 -1.02998,0.158458 -0.5546,0.05942 -1.10921,0.05942 -1.40632,0 -2.4561,-0.415953 -1.02998,-0.415953 -1.723237,-1.129016 -0.673449,-0.73287 -1.010173,-1.723235 -0.316916,-0.990365 -0.316916,-2.139189 z m 6.932556,-1.129016 q -0.0198,-0.376339 -0.13865,-0.73287 -0.099,-0.356531 -0.33673,-0.633834 -0.21788,-0.277302 -0.57441,-0.455567 -0.33672,-0.178266 -0.85171,-0.178266 -0.49518,0 -0.85172,0.178266 -0.35653,0.158458 -0.59422,0.43576 -0.23768,0.277302 -0.37633,0.653641 -0.11885,0.356531 -0.17827,0.73287 z m 11.80514,1.129016 q 0,-1.366703 -0.61402,-2.178803 -0.61403,-0.831906 -1.82228,-0.831906 -0.39614,0 -0.73287,0.03961 -0.33672,0.01981 -0.5546,0.05942 v 5.328164 q 0.2773,0.178266 0.71306,0.29711 0.45557,0.118843 0.91114,0.118843 2.09957,0 2.09957,-2.832444 z m 3.01071,-0.07923 q 0,1.208245 -0.29711,2.19861 -0.29711,0.990366 -0.87152,1.703428 -0.57441,0.713063 -1.42612,1.109209 -0.85172,0.396146 -1.96093,0.396146 -0.61402,0 -1.14882,-0.118844 -0.5348,-0.118843 -1.02998,-0.336724 v 3.921846 h -2.95129 v -13.72646 q 0.39615,-0.118843 0.91114,-0.21788 0.51499,-0.118844 1.06959,-0.198073 0.57441,-0.07923 1.14883,-0.118844 0.59421,-0.05942 1.12901,-0.05942 1.28748,0 2.29765,0.396146 1.01017,0.376339 1.70343,1.089402 0.69325,0.693256 1.04978,1.703428 0.37634,1.010172 0.37634,2.258032 z m 12.02304,-0.01981 q 0,1.228052 -0.35653,2.258032 -0.35654,1.010172 -1.02998,1.743043 -0.67345,0.713062 -1.6242,1.109208 -0.93095,0.396146 -2.09958,0.396146 -1.14882,0 -2.09957,-0.396146 -0.93094,-0.396146 -1.60439,-1.109208 -0.67345,-0.732871 -1.04979,-1.743043 -0.37634,-1.02998 -0.37634,-2.258032 0,-1.228053 0.37634,-2.238225 0.39615,-1.010172 1.0696,-1.723235 0.69325,-0.713063 1.62419,-1.109209 0.95076,-0.396146 2.05996,-0.396146 1.12902,0 2.05996,0.396146 0.95075,0.396146 1.6242,1.109209 0.67345,0.713063 1.04979,1.723235 0.37634,1.010172 0.37634,2.238225 z m -3.01071,0 q 0,-1.366704 -0.55461,-2.139189 -0.53479,-0.792292 -1.54497,-0.792292 -1.01017,0 -1.56477,0.792292 -0.55461,0.772485 -0.55461,2.139189 0,1.366704 0.55461,2.178803 0.5546,0.792292 1.56477,0.792292 1.01018,0 1.54497,-0.792292 0.55461,-0.812099 0.55461,-2.178803 z m 11.56747,-2.574949 q -0.39615,-0.09904 -0.93095,-0.198073 -0.53479,-0.118844 -1.14882,-0.118844 -0.2773,0 -0.67345,0.05942 -0.37634,0.03961 -0.57441,0.09904 v 7.962535 h -2.95129 V 86.44986 q 0.79229,-0.277302 1.86189,-0.514989 1.0894,-0.257495 2.41649,-0.257495 0.23769,0 0.57441,0.03961 0.33673,0.01981 0.67345,0.07923 0.33672,0.03961 0.67345,0.118843 0.33672,0.05942 0.57441,0.158459 z m 1.98075,-5.20932 2.95128,-0.475376 v 3.070132 h 3.54551 v 2.456105 h -3.54551 v 3.664351 q 0,0.930943 0.31692,1.485547 0.33672,0.554605 1.32709,0.554605 0.47538,0 0.97056,-0.07923 0.51499,-0.09904 0.93094,-0.257495 l 0.41595,2.297647 q -0.53479,0.21788 -1.18843,0.376338 -0.65364,0.158459 -1.6044,0.158459 -1.20824,0 -2.00053,-0.316917 -0.79229,-0.336724 -1.26767,-0.911136 -0.47538,-0.594219 -0.67345,-1.426125 -0.17826,-0.831907 -0.17826,-1.842079 z m 11.88438,10.894015 q 0.8121,0 1.14882,-0.158458 0.33672,-0.158459 0.33672,-0.614027 0,-0.356531 -0.43576,-0.614026 -0.43576,-0.277302 -1.32709,-0.614026 -0.69325,-0.257495 -1.26766,-0.534797 -0.55461,-0.277303 -0.95075,-0.653641 -0.39615,-0.396146 -0.61403,-0.930943 -0.21788,-0.534798 -0.21788,-1.287475 0,-1.46574 1.0894,-2.317454 1.0894,-0.851714 2.9909,-0.851714 0.95075,0 1.82228,0.178266 0.87152,0.158458 1.38651,0.356531 l -0.51499,2.297647 q -0.51499,-0.178266 -1.12902,-0.316917 -0.59422,-0.138651 -1.3469,-0.138651 -1.38651,0 -1.38651,0.772485 0,0.178265 0.0594,0.316916 0.0594,0.138652 0.23769,0.277303 0.17827,0.118843 0.47538,0.277302 0.31691,0.138651 0.79229,0.316917 0.97056,0.356531 1.60439,0.713063 0.63383,0.336724 0.99037,0.752677 0.37633,0.396146 0.51499,0.891328 0.15845,0.495183 0.15845,1.148824 0,1.544969 -1.16863,2.337261 -1.14882,0.792292 -3.2682,0.792292 -1.38651,0 -2.31746,-0.237687 -0.91113,-0.237688 -1.26766,-0.396146 l 0.49518,-2.396684 q 0.75268,0.29711 1.54497,0.475376 0.79229,0.158458 1.56478,0.158458 z"
           id="text78"
           style="font-weight:bold;font-size:19.8073px;font-family:Ubuntu;-inkscape-font-specification:'Ubuntu, Bold';fill:#324a5e;stroke-width:1.73129"
           aria-label="Reports" />
      </g>
    </g>
  </g>
</svg>
