<svg xmlns="http://www.w3.org/2000/svg" id="svg1228" width="55mm" height="55mm" version="1.1" viewBox="0 0 55 55">
  <g id="layer1" transform="translate(-78.5 -104.9)">
    <g id="g982" style="display:inline" transform="translate(7.4 89.2)">
      <g id="g1446" transform="translate(2.2 .7)">
        <path id="path1338" d="m120.9 59.8-.1.5-.2.4-.2.3-.4.1-.3.2h-3.1v-1h2.8q.2 0 .3-.2l.1-.3q0-.4-.4-.4h-1.6l-.6-.1-.4-.3-.2-.4v-1l.4-.4.4-.2h3v1h-2.7l-.1.1v.2h1.8q.4 0 .7.2l.4.4.3.4zm-7.5 1.5h-1v-2.9q0-.2-.2-.3l-.3-.1h-1.3v3.3h-1V57l.2-.1h2.6l.5.3V57h1.7l.3.1q.2 0 .3.2l.3.3.2.3v3.4h-1v-2.9l-.1-.3-.3-.1h-1v.4zm-4.6-3v.6l-.3.4-.5.4-.6.1h-1.9v-1h2.2l.1-.4-.1-.3q-.1-.2-.3-.2h-1.9q-.2 0-.3.2l-.1.3v1.8h2.3v1H105l-.4-.2-.4-.5-.1-.6v-2l.3-.4.4-.4.7-.1h2.3l.5.3.4.4zm-5.3-.3h-1.8v3.3h-1V58h-1.4v-1h1.3v-1.5h1V57h1.9zm-4.6 1.8v.5l-.3.4-.2.3-.3.1-.4.2h-3.1v-1h2.8q.2 0 .3-.2.2 0 .2-.3 0-.4-.5-.4h-1.6l-.6-.1-.4-.3-.2-.4v-1l.4-.4.4-.2h3v1h-2.7v.3h1.7q.4 0 .7.2l.5.4.2.4zm-5.2 1.9v.5l-.2.4-.3.2q-.1.2-.3.2l-.3.1h-2.3v-1h2.3V57h1.1zm-1.4-.4h-2.4l-.5-.3-.3-.5q-.2-.3-.2-.7V57h1v2.8q0 .2.2.3l.3.1h1.9zm-4.1-1.7v.6l-.3.4-.3.3-.3.2-.4.1h-4.4v-1h4l.5-.1q.2-.2.2-.5v-.3l-.2-.2-.2-.1H84l-.5-.1-.6-.3-.4-.6-.1-.8.1-.7.4-.6.6-.3h4.1v1H84q-.3 0-.4.2-.2.1-.2.4t.2.5q.1.2.4.2h3l.4.2.3.2.3.3.2.4zm-6.5-2.3v.5l-2.5 2.4h2.5v1h-4q-.2 0-.2-.2v-.3l.1-.3L80 58h-2.5v-1h4q.2.1.2.3m-4.8 1v.6l-.3.4-.4.4-.7.1h-1.9v-1h2.2l.1-.4V58l-.4-.2h-1.9q-.2 0-.3.2l-.1.3v1.5l.1.3h2.2v1h-2.4l-.4-.2-.4-.5-.1-.6v-2l.3-.4.4-.4.7-.1H76l.4.3.4.4z" style="font-size:8.20226px;line-height:1.25;font-family:Audiowide;-inkscape-font-specification:&quot;Audiowide, Normal&quot;;letter-spacing:0;word-spacing:0;fill:#497592;stroke-width:.5;stroke-linejoin:round;stroke-opacity:.137778;paint-order:stroke markers fill"/>
        <path id="path1363" d="M114 67.5v.5q-.2 0-.2.2h-.2l-.2.1H112v-.6h1.3v-2.4h-1.5l-.1.2v1l.3.1h1v.6h-1.4l-.2-.2-.2-.1v-.3l-.1-.3v-1.2l.2-.2.1-.1.3-.1h1.8l.2.1.1.2.1.2v.3zm-3.3-.3h-.7v-1.6l-.1-.2-.2-.1h-1.2v2h-.7v-2.6h2.2q.2 0 .3.2l.2.2.1.3v.4zm-3.5-3.1h-.6v-.6h.6zm0 3.1h-.6v-2.6h.6zm-1-2H105v2h-.6v-2h-.8v-.6h.8v-.8h.6v.8h1.1zm-2.7 2h-.6q-.2 0-.3-.2l-.2-.2-.1-.5v-2.8h.6v3l.3.1h.3zm-1.8-.3v.2l-.2.1h-2l-.3-.2-.2-.3-.1-.3v-1.8h.6v1.7l.1.2h.2l.2.1h1v-2h.7zm-3.3-.6v.3l-.1.3-.2.1-.2.1-.2.1h-1.9v-.6h1.9l.1-.3q0-.2-.3-.2h-1.3l-.2-.3-.2-.2V65l.3-.2.2-.1h1.8v.5h-1.6v.2h1q.3 0 .5.2l.2.2.2.3zm-3 1h-.7v-1.7l-.1-.2-.2-.1H93v2h-.6v-2.6h2.2l.2.2q.2 0 .3.2l.1.3v.4zm-3.5-1v.3l-.1.3-.2.1-.2.1-.2.1h-1.6l-.3-.2-.2-.2V65l.2-.3.3-.1h1.9l.2.2.2.3v.3zm-.6-.8v-.2h-1.6v1.2l.2.1h1.3l.1-.3zm-2.7 1.7h-2.7l-.1-.2-.2-.1-.1-.3v-2.3l.1-.2.2-.2h.2l.3-.1h2.3v.6H86v2.1l.2.1h2.3zm-5.1-2.8H82v2.8h-.6v-2.8H80v-.6h3.4zm-3.9 2.8H79v-3.4h.6z" style="font-size:4.94397px;line-height:1.25;font-family:Audiowide;-inkscape-font-specification:&quot;Audiowide, Normal&quot;;letter-spacing:0;word-spacing:0;opacity:.5;fill:#497592;stroke-width:.5;stroke-linejoin:round;stroke-opacity:.137778;paint-order:stroke markers fill"/>
        <path id="path932" d="M107.2 55.8q-1-1.8-2.6-3.4c-2.3-2.6-5.1-4.8-7.5-7.3-1.7-1.6-3.7-3.4-3.7-6q-.4-2.5.9-4.8c.5-1 1.2-2.4 1.9-2.7q-.2 3.1 1.3 5.6c2.1 3.5 5 6.6 6.8 10.3 1.8 4 3.7 11.1 2.9 8.3m-10.3-4.6a18 18 0 0 1-10.8-12q-.6-2.6-.3-5.5 1-2.3.1-4.8c-.4-2.3 0-4.1 1-6.9.9-1.5.8-3.4 2.8-5 0 1.5 1 3.4 2.7 2.3q2.5-.5 5 0c1.6 0-1-4.9 1.5-1.3a7 7 0 0 1 2.5 4.7c0 3.7-.3 5.4-1.7 8.3-1 2-.7 2-1.6-.5-.5-2.4-1.4-5-3.5-6.5-1.3-.7-3.1.2-3.5 1.7-.7 1.8 0 3.8 1.6 4.9.7.3.2.8 0 1.3-1.4 2.5-2.4 5.5-1.3 8.2 1.4 3.7 4.6 6.1 7.4 8.6q3 2.4 5.4 5.2zm9.3-1.7a29 29 0 0 0-5.4-10.2c-1.3-1.4-1.2-3.4-.3-5q1-1.7 2.6-3.2c1.4 2 2.1 4.5 3.1 6.7 2.2 4.5.3 8.5 0 11.7m-12.3-21q-1.4-.9-1.2-3.5c2.6 1.6 3 2.2 3 3.4q-.9.4-1.8 0" style="fill:#497592;fill-opacity:1;stroke:none;stroke-width:.748963;stroke-linejoin:round;stroke-miterlimit:4;stroke-dasharray:none;stroke-opacity:.137778;paint-order:stroke markers fill"/>
      </g>
    </g>
  </g>
</svg>