<svg xmlns="http://www.w3.org/2000/svg" id="svg54386" width="221.6" height="62" version="1.1" viewBox="0 0 58.6 16.4">
  <g id="layer1" transform="translate(-91.3 -145.3)">
    <g id="g931">
      <path id="path827" d="M105.8 149.4v.5l-.3.4-.5.4-.6.1h-2v-1h2.3l.1-.4-.1-.3-.3-.1H102v2.2l.4.1h1.9v1H102l-.5-.3-.3-.5q-.2-.2-.2-.6v-1.5l.1-.5q0-.2.3-.4l.4-.4.7-.1h2.3l.5.3.3.4q.2.3.2.7" style="font-size:8.20226px;line-height:1.25;font-family:Audiowide;-inkscape-font-specification:&quot;Audiowide, Normal&quot;;letter-spacing:0;word-spacing:0;fill:#497592;stroke-width:.5;stroke-linejoin:round;stroke-opacity:.137778;paint-order:stroke markers fill"/>
      <path id="path829" d="M110.6 148.3v.3l-.1.3-2.4 2.4h2.5v1h-4.1l-.2-.3v-.3q0-.2.2-.3l2.4-2.4h-2.6v-1h4.1z" style="font-size:8.20226px;line-height:1.25;font-family:Audiowide;-inkscape-font-specification:&quot;Audiowide, Normal&quot;;letter-spacing:0;word-spacing:0;fill:#497592;stroke-width:.5;stroke-linejoin:round;stroke-opacity:.137778;paint-order:stroke markers fill"/>
      <path id="path831" d="M117 150.6v.6l-.2.4-.3.3-.4.2-.4.2h-4.3v-1h4q.3 0 .4-.2t.2-.5v-.3l-.2-.2-.2-.1H113l-.6-.1-.5-.3q-.3-.2-.4-.6t-.2-.7.2-.8q.1-.4.4-.6l.5-.3h4.1v1H113q-.3 0-.5.2l-.1.5.1.4q.2.2.5.2h2.7l.4.2.4.2.3.3.2.5z" style="font-size:8.20226px;line-height:1.25;font-family:Audiowide;-inkscape-font-specification:&quot;Audiowide, Normal&quot;;letter-spacing:0;word-spacing:0;fill:#497592;stroke-width:.5;stroke-linejoin:round;stroke-opacity:.137778;paint-order:stroke markers fill"/>
      <path id="path833" d="M122.6 152.7v.5l-.3.4-.2.2-.3.2-.4.1h-2.2v-1h2.2l.1-.4V148h1zm-1.5-.4h-2.3l-.5-.3-.4-.5-.1-.7V148h1v2.8l.1.3q.1.2.3.2h2z" style="font-size:8.20226px;line-height:1.25;font-family:Audiowide;-inkscape-font-specification:&quot;Audiowide, Normal&quot;;letter-spacing:0;word-spacing:0;fill:#497592;stroke-width:.5;stroke-linejoin:round;stroke-opacity:.137778;paint-order:stroke markers fill"/>
      <path id="path835" d="m127.8 150.8-.1.5-.2.4-.3.3-.3.2h-.3l-.3.1h-2.8v-1h2.8q.2 0 .3-.2l.1-.3q0-.4-.4-.4h-1.6l-.6-.1-.4-.3-.2-.4v-1l.4-.3q.1-.2.4-.3h2.9v1h-2.7v.3h1.8q.4 0 .7.2l.4.4.3.5z" style="font-size:8.20226px;line-height:1.25;font-family:Audiowide;-inkscape-font-specification:&quot;Audiowide, Normal&quot;;letter-spacing:0;word-spacing:0;fill:#497592;stroke-width:.5;stroke-linejoin:round;stroke-opacity:.137778;paint-order:stroke markers fill"/>
      <path id="path837" d="M132.3 149h-1.8v3.3h-1V149H128v-1h1.4v-1.4h1v1.4h1.8z" style="font-size:8.20226px;line-height:1.25;font-family:Audiowide;-inkscape-font-specification:&quot;Audiowide, Normal&quot;;letter-spacing:0;word-spacing:0;fill:#497592;stroke-width:.5;stroke-linejoin:round;stroke-opacity:.137778;paint-order:stroke markers fill"/>
      <path id="path839" d="m137.7 149.4-.1.5-.2.4-.5.4-.7.1h-1.8v-1h2.2v-.7l-.4-.1H134v2.2l.4.1h1.8v1H134l-.5-.3-.3-.5q-.2-.2-.2-.6v-1.5l.1-.5.2-.4.5-.4.7-.1h2.3l.5.3.3.4q.2.3.2.7" style="font-size:8.20226px;line-height:1.25;font-family:Audiowide;-inkscape-font-specification:&quot;Audiowide, Normal&quot;;letter-spacing:0;word-spacing:0;fill:#497592;stroke-width:.5;stroke-linejoin:round;stroke-opacity:.137778;paint-order:stroke markers fill"/>
      <path id="path841" d="M142.2 152.3h-1v-2.9l-.1-.3h-1.7v3.2h-1v-4l.1-.2h.2l.2-.1h2.3l.5.3v-.3h1.7l.4.1.3.2.2.3.2.3v3.4h-1v-3.2H142l.1.3z" style="font-size:8.20226px;line-height:1.25;font-family:Audiowide;-inkscape-font-specification:&quot;Audiowide, Normal&quot;;letter-spacing:0;word-spacing:0;fill:#497592;stroke-width:.5;stroke-linejoin:round;stroke-opacity:.137778;paint-order:stroke markers fill"/>
      <path id="path843" d="M149.7 150.8v.5l-.2.4-.3.3-.3.2h-.3l-.3.1h-2.9v-1h2.9q.2 0 .3-.2v-.3q0-.4-.3-.4h-1.7l-.5-.1-.4-.3-.2-.4-.1-.4.1-.6.3-.3.4-.3h3v1h-2.7v.3h1.8q.4 0 .6.2l.5.4q.2.2.2.5z" style="font-size:8.20226px;line-height:1.25;font-family:Audiowide;-inkscape-font-specification:&quot;Audiowide, Normal&quot;;letter-spacing:0;word-spacing:0;fill:#497592;stroke-width:.5;stroke-linejoin:round;stroke-opacity:.137778;paint-order:stroke markers fill"/>
      <path id="path846" d="M115.5 159.8h-.6v-3.4h.6z" style="font-size:4.94397px;line-height:1.25;font-family:Audiowide;-inkscape-font-specification:&quot;Audiowide, Normal&quot;;letter-spacing:0;word-spacing:0;opacity:.5;fill:#497592;stroke-width:.5;stroke-linejoin:round;stroke-opacity:.137778;paint-order:stroke markers fill"/>
      <path id="path848" d="M119.4 157H118v2.8h-.6V157H116v-.6h3.4z" style="font-size:4.94397px;line-height:1.25;font-family:Audiowide;-inkscape-font-specification:&quot;Audiowide, Normal&quot;;letter-spacing:0;word-spacing:0;opacity:.5;fill:#497592;stroke-width:.5;stroke-linejoin:round;stroke-opacity:.137778;paint-order:stroke markers fill"/>
      <path id="path850" d="M124.5 159.8h-2.6l-.2-.2-.2-.1-.1-.3V157l.2-.2.1-.2h.2l.3-.1h2.3v.6h-2.4l-.1.3v1.8l.2.1h2.3z" style="font-size:4.94397px;line-height:1.25;font-family:Audiowide;-inkscape-font-specification:&quot;Audiowide, Normal&quot;;letter-spacing:0;word-spacing:0;opacity:.5;fill:#497592;stroke-width:.5;stroke-linejoin:round;stroke-opacity:.137778;paint-order:stroke markers fill"/>
      <path id="path852" d="M127.8 159v.2l-.1.3-.2.1-.2.1-.2.1h-1.6l-.3-.2-.2-.2v-1.7l.2-.3.3-.1h1.9l.2.2.2.3v.3zm-.6-.9v-.2h-1.6v1.2l.2.1h1.3l.1-.3z" style="font-size:4.94397px;line-height:1.25;font-family:Audiowide;-inkscape-font-specification:&quot;Audiowide, Normal&quot;;letter-spacing:0;word-spacing:0;opacity:.5;fill:#497592;stroke-width:.5;stroke-linejoin:round;stroke-opacity:.137778;paint-order:stroke markers fill"/>
      <path id="path854" d="M131.3 159.8h-.7v-1.6l-.1-.2-.2-.1H129v2h-.6v-2.6h2.2l.3.2.2.2.1.3v.4z" style="font-size:4.94397px;line-height:1.25;font-family:Audiowide;-inkscape-font-specification:&quot;Audiowide, Normal&quot;;letter-spacing:0;word-spacing:0;opacity:.5;fill:#497592;stroke-width:.5;stroke-linejoin:round;stroke-opacity:.137778;paint-order:stroke markers fill"/>
      <path id="path856" d="M134.3 159v.2l-.1.3-.2.1-.2.1-.2.1h-1.8v-.6h1.8l.1-.3q0-.2-.2-.2H132l-.2-.3-.1-.2v-.6l.2-.2.2-.1h1.8v.5h-1.6v.2h1q.3 0 .5.2l.2.2.2.3z" style="font-size:4.94397px;line-height:1.25;font-family:Audiowide;-inkscape-font-specification:&quot;Audiowide, Normal&quot;;letter-spacing:0;word-spacing:0;opacity:.5;fill:#497592;stroke-width:.5;stroke-linejoin:round;stroke-opacity:.137778;paint-order:stroke markers fill"/>
      <path id="path858" d="M137.6 159.5v.2l-.2.1h-2l-.3-.2-.2-.3-.1-.3v-1.8h.6v1.7l.1.2h.2l.2.1h1.1v-2h.6z" style="font-size:4.94397px;line-height:1.25;font-family:Audiowide;-inkscape-font-specification:&quot;Audiowide, Normal&quot;;letter-spacing:0;word-spacing:0;opacity:.5;fill:#497592;stroke-width:.5;stroke-linejoin:round;stroke-opacity:.137778;paint-order:stroke markers fill"/>
      <path id="path860" d="M139.4 159.8h-.6q-.2 0-.3-.2l-.2-.2-.1-.5v-2.8h.6v2.8l.1.2.2.1h.3z" style="font-size:4.94397px;line-height:1.25;font-family:Audiowide;-inkscape-font-specification:&quot;Audiowide, Normal&quot;;letter-spacing:0;word-spacing:0;opacity:.5;fill:#497592;stroke-width:.5;stroke-linejoin:round;stroke-opacity:.137778;paint-order:stroke markers fill"/>
      <path id="path862" d="M142 157.8h-1v2h-.7v-2h-.8v-.6h.8v-.8h.6v.8h1.1z" style="font-size:4.94397px;line-height:1.25;font-family:Audiowide;-inkscape-font-specification:&quot;Audiowide, Normal&quot;;letter-spacing:0;word-spacing:0;opacity:.5;fill:#497592;stroke-width:.5;stroke-linejoin:round;stroke-opacity:.137778;paint-order:stroke markers fill"/>
      <path id="path864" d="M143 156.7h-.5v-.6h.6zm0 3.1h-.5v-2.6h.6z" style="font-size:4.94397px;line-height:1.25;font-family:Audiowide;-inkscape-font-specification:&quot;Audiowide, Normal&quot;;letter-spacing:0;word-spacing:0;opacity:.5;fill:#497592;stroke-width:.5;stroke-linejoin:round;stroke-opacity:.137778;paint-order:stroke markers fill"/>
      <path id="path866" d="M146.6 159.8h-.6v-1.6l-.2-.2-.2-.1h-1.2v2h-.7v-2.6h2.2q.2 0 .3.2l.2.2.1.3v.4z" style="font-size:4.94397px;line-height:1.25;font-family:Audiowide;-inkscape-font-specification:&quot;Audiowide, Normal&quot;;letter-spacing:0;word-spacing:0;opacity:.5;fill:#497592;stroke-width:.5;stroke-linejoin:round;stroke-opacity:.137778;paint-order:stroke markers fill"/>
      <path id="path868" d="M150 160v.4l-.2.2-.1.2h-.2l-.2.1H148v-.6h1.3v-2.4h-1.5v1.2l.2.1h1v.6h-1.4l-.2-.2-.2-.1v-.3l-.1-.3v-1.2l.2-.2.1-.1.3-.1h1.8l.2.1.1.2.1.2v.3z" style="font-size:4.94397px;line-height:1.25;font-family:Audiowide;-inkscape-font-specification:&quot;Audiowide, Normal&quot;;letter-spacing:0;word-spacing:0;opacity:.5;fill:#497592;stroke-width:.5;stroke-linejoin:round;stroke-opacity:.137778;paint-order:stroke markers fill"/>
      <path id="path945" d="m100.2 161.3-1-1.4-3.1-3c-.7-.6-1.5-1.3-1.5-2.3q-.1-1 .4-2 .3-.8.7-1.1 0 1.2.6 2.3c.8 1.4 2 2.6 2.7 4.2s1.5 4.5 1.2 3.3m-4.2-1.9c-2-.8-3.9-2.6-4.4-4.8q-.2-1.1 0-2.2.3-1 0-2-.2-1.3.4-2.8c.3-.6.3-1.4 1.1-2 0 .6.4 1.3 1.1.9q1-.2 2 0c.7 0-.4-2 .6-.5q.9.7 1 1.9a6 6 0 0 1-.6 3.3c-.5.8-.3.9-.7-.2q-.2-1.6-1.4-2.6a1 1 0 0 0-1.4.7q-.4 1.2.6 2 .3.2 0 .5c-.5 1-1 2.2-.5 3.3.5 1.5 1.9 2.5 3 3.5q1.3 1 2.2 2.1zm3.8-.7q-.7-2.3-2.2-4-.7-1-.1-2.1.3-.8 1-1.3.9 1.3 1.3 2.7c.9 1.8.1 3.4 0 4.7m-5-8.5q-.5-.3-.5-1.4 1.4 1 1.3 1.4-.5.2-.8 0" style="fill:#497592;fill-opacity:1;stroke:none;stroke-width:.303756;stroke-linejoin:round;stroke-miterlimit:4;stroke-dasharray:none;stroke-opacity:.137778;paint-order:stroke markers fill"/>
    </g>
  </g>
</svg>